# xmcd
# Copyright (C) 1995-1998 Ti Kan
#
# Track frame offsets:
#       150
#       16109
#       32123
#       48785
#       64623
#       80877
#       97679
#       114736
#       126761
#       143296
#       157245
#       173798
#       203598
#       230169
#
# Disc length: 3412 seconds
#
# Revision: 0
# Processed by: cddbd v1.5.2PL0 Copyright (c) Steve Scherf et al.
# Submitted via: CD-Import v1.0
#
DISCID=b00d520e
DTITLE=Tim and Puma Mimi - Turn The Page
DYEAR=1900
DGENRE=
TTITLE0=Upside Down
TTITLE1=Aquarium
TTITLE2=Perspective
TTITLE3=A Little Worries On The Way Back
TTITLE4=Emoticon
TTITLE5=Chocolate Junkie
TTITLE6=Purple Zoo
TTITLE7=Giacometti
TTITLE8=Colors Of My Town
TTITLE9=Princess And Cat
TTITLE10=Hara Ga Tatta
TTITLE11=Reality (Remix(
TTITLE12=Namida (Remix)
TTITLE13=Colors Of My Town (Remix)
EXTD=
EXTT0=
EXTT1=
EXTT2=
EXTT3=
EXTT4=
EXTT5=
EXTT6=
EXTT7=
EXTT8=
EXTT9=
EXTT10=
EXTT11=
EXTT12=
EXTT13=
PLAYORDER=
